<svg xmlns="http://www.w3.org/2000/svg" viewBox="0 0 1200 800">
  <defs>
    <linearGradient id="space" x1="0" y1="0" x2="1" y2="1">
      <stop offset="0%" stop-color="#010310"/>
      <stop offset="100%" stop-color="#062743"/>
    </linearGradient>
    <linearGradient id="neon" x1="0" y1="0" x2="1" y2="1">
      <stop offset="0%" stop-color="#0ff"/>
      <stop offset="100%" stop-color="#7d2ae8"/>
    </linearGradient>
    <style>
      text { font-family: 'Orbitron', 'Poppins', sans-serif; fill: #fff; font-weight: 700; }
    </style>
  </defs>
  <rect width="1200" height="800" fill="url(#space)"/>
  <g opacity="0.5" stroke="#0ff" stroke-width="2">
    <path d="M0 200 L1200 200"/>
    <path d="M0 400 L1200 400"/>
    <path d="M0 600 L1200 600"/>
    <path d="M200 0 L200 800"/>
    <path d="M600 0 L600 800"/>
    <path d="M1000 0 L1000 800"/>
  </g>
  <g transform="translate(100,120)">
    <rect width="400" height="240" rx="30" fill="url(#neon)" opacity="0.8"/>
    <text x="40" y="80" font-size="60">NOAH</text>
    <text x="40" y="150" font-size="48">GAMING</text>
  </g>
  <g transform="translate(650,110)">
    <rect width="420" height="260" rx="35" fill="#e63946" opacity="0.8"/>
    <text x="40" y="100" font-size="58">SURVIVES</text>
  </g>
  <g transform="translate(90,420)">
    <rect width="420" height="260" rx="35" fill="#ff7b00" opacity="0.8"/>
    <text x="40" y="90" font-size="54">GESTALT-</text>
    <text x="40" y="160" font-size="54">WANDLER</text>
  </g>
  <g transform="translate(650,420)">
    <rect width="420" height="260" rx="35" fill="#118ab2" opacity="0.8"/>
    <text x="40" y="90" font-size="54">SUPER</text>
    <text x="40" y="160" font-size="54">HERO</text>
  </g>
  <circle cx="1040" cy="120" r="70" fill="#ffba08" opacity="0.8"/>
  <circle cx="220" cy="640" r="70" fill="#3a86ff" opacity="0.6"/>
  <path d="M0 760 H1200" stroke="#0ff" stroke-width="4" opacity="0.4"/>
</svg>
